<?xml version="1.0" encoding="UTF-8" standalone="no"?>
<!-- Created with Inkscape (http://www.inkscape.org/) -->

<svg
   width="210mm"
   height="297mm"
   viewBox="0 0 210 297"
   version="1.1"
   id="svg1"
   inkscape:version="1.4.4 (dcaf3e7, 2026-05-05)"
   sodipodi:docname="badshake17.svg"
   xmlns:inkscape="http://www.inkscape.org/namespaces/inkscape"
   xmlns:sodipodi="http://sodipodi.sourceforge.net/DTD/sodipodi-0.dtd"
   xmlns:xlink="http://www.w3.org/1999/xlink"
   xmlns="http://www.w3.org/2000/svg"
   xmlns:svg="http://www.w3.org/2000/svg">
  <sodipodi:namedview
     id="namedview1"
     pagecolor="#ffffff"
     bordercolor="#000000"
     borderopacity="0.25"
     inkscape:showpageshadow="2"
     inkscape:pageopacity="0.0"
     inkscape:pagecheckerboard="0"
     inkscape:deskcolor="#d1d1d1"
     inkscape:document-units="mm"
     inkscape:lockguides="true"
     inkscape:zoom="3.1597197"
     inkscape:cx="70.259396"
     inkscape:cy="628.06203"
     inkscape:window-width="1600"
     inkscape:window-height="829"
     inkscape:window-x="-8"
     inkscape:window-y="-8"
     inkscape:window-maximized="1"
     inkscape:current-layer="layer1" />
  <defs
     id="defs1">
    <linearGradient
       id="linearGradient27"
       inkscape:collect="always">
      <stop
         style="stop-color:#762e00;stop-opacity:0.20661157;"
         offset="0.15025906"
         id="stop27" />
      <stop
         style="stop-color:#522200;stop-opacity:0.34710744;"
         offset="1"
         id="stop28" />
    </linearGradient>
    <linearGradient
       inkscape:collect="always"
       xlink:href="#linearGradient27"
       id="linearGradient28"
       x1="28.06579"
       y1="118.06579"
       x2="28.539474"
       y2="106.81579"
       gradientUnits="userSpaceOnUse"
       gradientTransform="matrix(1.0409469,-0.00819297,0.00852873,0.99996644,-1.810449,0.70166795)" />
  </defs>
  <g
     inkscape:label="Camada 1"
     inkscape:groupmode="layer"
     id="layer1">
    <path
       style="fill:url(#linearGradient28);fill-opacity:1;stroke-width:0.26995"
       d="m 18.024177,118.61773 c -0.0019,-0.22328 0.226727,-0.67169 -0.0057,-0.66987 -0.232443,0.002 -0.09654,0.87042 0.0057,0.66987 0.210789,-0.41341 0.203301,-0.90048 0.337234,-1.34248 0.19708,-0.65037 1.001745,-1.07907 1.206028,-1.68427 0.03585,-0.1062 -0.03012,-0.22639 -0.0028,-0.33493 0.02608,-0.10383 0.186134,-0.83885 0.341519,-0.84008 0.05811,-4.8e-4 -0.01739,0.11465 0.0015,0.16747 0.0468,0.13128 0.258261,0.63014 0.527276,0.49828 0.999901,-0.49014 2.270611,-1.55872 2.767857,-2.53396 0.242201,-0.47502 0.277379,-0.94631 0.685893,-1.34522 0.127819,-0.12482 0.814546,-0.0407 1.044553,-0.1757 0.941398,-0.55274 1.581589,-1.38145 2.247723,-2.19491 0.269259,-0.32882 0.540641,-0.39981 0.690178,-0.84283 0.05378,-0.1593 -0.05805,-0.34308 -0.0043,-0.50239 0.166452,-0.49313 0.407653,-0.47471 0.690178,-0.84283 0.03832,-0.0499 0.246046,-0.67805 0.518708,-0.50652 0.350276,0.22036 0.362868,1.26147 0.537274,1.67056 0.421001,0.98753 0.838523,1.51796 1.414638,2.33356 0.310984,0.44025 0.871664,0.65762 1.22888,0.9952 0.452813,0.42791 0.463677,1.15208 1.231736,1.33013 0.594358,0.13778 1.390729,-0.24688 1.919062,0.15237 0.550662,0.41613 1.179218,1.18282 1.410352,1.83116 0.10717,0.30062 -0.0986,0.70418 0.0085,1.00479 0.06788,0.19043 0.257708,0.32039 0.352945,0.49967 0.292864,0.55133 0.594087,1.1184 0.885934,1.66781 0.105652,0.1989 -0.0696,0.45861 0.0057,0.66987 0.01882,0.0528 0.1329,-0.0405 0.174332,-10e-4 0.04142,0.0392 -0.05076,0.14291 0.0015,0.16746 0.447515,0.21056 0.694242,-0.36653 0.700178,0.32945"
       id="path20" />
    <path
       style="fill:#000000;stroke-width:0.264583"
       id="path16-7"
       sodipodi:type="arc"
       sodipodi:cx="74.140358"
       sodipodi:cy="130.48869"
       sodipodi:rx="4.1030803"
       sodipodi:ry="15.072539"
       sodipodi:start="1.4286398"
       sodipodi:end="1.1550278"
       sodipodi:open="true"
       sodipodi:arc-type="arc"
       d="m 74.721675,145.40919 a 4.1030803,15.072539 0 0 1 -4.593777,-11.77023 4.1030803,15.072539 0 0 1 2.882642,-17.64013 4.1030803,15.072539 0 0 1 4.987833,9.35884 4.1030803,15.072539 0 0 1 -2.200809,18.91948"
       transform="rotate(23.109913)" />
    <path
       style="fill:#808080;stroke-width:0.271964"
       id="path17"
       sodipodi:type="arc"
       sodipodi:cx="22.104103"
       sodipodi:cy="178.59563"
       sodipodi:rx="4.4236584"
       sodipodi:ry="13.816494"
       sodipodi:start="1.4286398"
       sodipodi:end="1.1550278"
       sodipodi:open="true"
       sodipodi:arc-type="arc"
       d="m 22.730839,192.27275 a 4.4236584,13.816494 0 0 1 -4.952694,-10.78938 4.4236584,13.816494 0 0 1 3.107866,-16.17011 4.4236584,13.816494 0 0 1 5.377538,8.57893 4.4236584,13.816494 0 0 1 -2.372761,17.34285"
       transform="rotate(-3.7538037)" />
    <path
       style="fill:#000000;stroke-width:0.264583"
       id="path16"
       sodipodi:type="arc"
       sodipodi:cx="17.94278"
       sodipodi:cy="176.67728"
       sodipodi:rx="4.1030803"
       sodipodi:ry="15.072539"
       sodipodi:start="1.4286398"
       sodipodi:end="1.1550278"
       sodipodi:open="true"
       sodipodi:arc-type="arc"
       d="m 18.524097,191.59778 a 4.1030803,15.072539 0 0 1 -4.593778,-11.77024 4.1030803,15.072539 0 0 1 2.882643,-17.64012 4.1030803,15.072539 0 0 1 4.987832,9.35883 4.1030803,15.072539 0 0 1 -2.200809,18.91948"
       transform="rotate(-2.1461933)" />
    <path
       style="fill:#000000;stroke-width:0.410348"
       id="path14"
       sodipodi:type="arc"
       sodipodi:cx="27.236843"
       sodipodi:cy="153.17764"
       sodipodi:rx="11.605263"
       sodipodi:ry="20.901318"
       sodipodi:start="1.4286398"
       sodipodi:end="4.8301258"
       sodipodi:arc-type="arc"
       d="m 28.881056,173.86812 a 11.605263,20.901318 0 0 1 -11.357148,-9.25137 11.605263,20.901318 0 0 1 -0.15219,-22.44767 11.605263,20.901318 0 0 1 11.228337,-9.74806"
       sodipodi:open="true" />
    <path
       style="fill:#999999;stroke-width:0.410348"
       id="path14-2"
       sodipodi:type="arc"
       sodipodi:cx="-31.409184"
       sodipodi:cy="-152.7836"
       sodipodi:rx="11.605263"
       sodipodi:ry="20.901318"
       sodipodi:start="1.4289437"
       sodipodi:end="4.8158371"
       sodipodi:arc-type="arc"
       d="m -29.768462,-132.09222 a 11.605263,20.901318 0 0 1 -11.324591,-9.17262 11.605263,20.901318 0 0 1 -0.238423,-22.35938 11.605263,20.901318 0 0 1 11.120695,-9.94896"
       sodipodi:open="true"
       transform="rotate(-179.40553)" />
    <path
       style="fill:none;fill-opacity:1;stroke:#000000;stroke-width:2.18556;stroke-dasharray:none;stroke-opacity:1"
       id="path31"
       sodipodi:type="arc"
       sodipodi:cx="33.510735"
       sodipodi:cy="126.60921"
       sodipodi:rx="9.4841738"
       sodipodi:ry="6.9411521"
       sodipodi:start="4.7384472"
       sodipodi:end="1.5580516"
       sodipodi:open="true"
       sodipodi:arc-type="arc"
       d="m 33.757847,119.67041 a 9.4841738,6.9411521 0 0 1 9.236851,6.985 9.4841738,6.9411521 0 0 1 -9.363094,6.89439" />
    <g
       id="g17"
       transform="translate(0.16747266,-2.8470352)">
      <path
         style="fill:#666666;stroke-width:0.264583"
         id="path2"
         sodipodi:type="arc"
         sodipodi:cx="28.125"
         sodipodi:cy="121.23441"
         sodipodi:rx="10.361842"
         sodipodi:ry="18.947367"
         sodipodi:start="0"
         sodipodi:end="3.1487412"
         sodipodi:open="true"
         sodipodi:arc-type="arc"
         d="m 38.486842,121.23441 a 10.361842,18.947367 0 0 1 -5.202318,16.43143 10.361842,18.947367 0 0 1 -10.383152,-0.0679 10.361842,18.947367 0 0 1 -5.137949,-16.49901" />
      <path
         style="fill:#000000;stroke-width:0.236562"
         id="path3"
         sodipodi:type="arc"
         sodipodi:cx="-20.218477"
         sodipodi:cy="-127.99133"
         sodipodi:rx="2.25"
         sodipodi:ry="1.3013953"
         sodipodi:start="6.0440773"
         sodipodi:end="3.4296827"
         sodipodi:open="true"
         sodipodi:arc-type="arc"
         d="m -18.032491,-128.29955 a 2.25,1.3013953 0 0 1 -0.939837,1.39179 2.25,1.3013953 0 0 1 -2.58253,-0.0366 2.25,1.3013953 0 0 1 -0.820893,-1.41673"
         transform="rotate(178.6015)"
         inkscape:label="path3" />
      <path
         style="fill:#000000;stroke-width:0.264583"
         d="M 23.694916,135.61221 Z"
         id="path4" />
      <path
         style="fill:#000000;stroke-width:0.264583"
         id="path7"
         sodipodi:type="arc"
         sodipodi:cx="23.072422"
         sodipodi:cy="125.26279"
         sodipodi:rx="1.5909903"
         sodipodi:ry="0.62802243"
         sodipodi:start="3.1653847"
         sodipodi:end="0.041927679"
         sodipodi:arc-type="slice"
         d="m 21.481882,125.24785 a 1.5909903,0.62802243 0 0 1 0.836504,-0.53807 1.5909903,0.62802243 0 0 1 1.598449,0.0207 1.5909903,0.62802243 0 0 1 0.745179,0.55859 l -1.589592,-0.0263 z" />
      <path
         style="fill:#000000;stroke-width:0.264583"
         id="path7-1"
         sodipodi:type="arc"
         sodipodi:cx="33.603916"
         sodipodi:cy="125.18384"
         sodipodi:rx="1.5909903"
         sodipodi:ry="0.62802243"
         sodipodi:start="3.1653847"
         sodipodi:end="0.041927679"
         sodipodi:arc-type="slice"
         d="m 32.013376,125.1689 a 1.5909903,0.62802243 0 0 1 0.836504,-0.53807 1.5909903,0.62802243 0 0 1 1.598449,0.0207 1.5909903,0.62802243 0 0 1 0.745179,0.55859 l -1.589592,-0.0263 z" />
      <path
         style="fill:#000000;stroke-width:0.264583"
         id="path10"
         sodipodi:type="arc"
         sodipodi:cx="14.505507"
         sodipodi:cy="129.2077"
         sodipodi:rx="0.0045793303"
         sodipodi:ry="0.018317321"
         sodipodi:start="3.1437727"
         sodipodi:end="3.1490678"
         sodipodi:arc-type="slice"
         d="m 14.500928,129.20766 a 0.00457933,0.01831732 0 0 1 0,-9e-5 l 0.0046,1.3e-4 z" />
      <path
         style="fill:#000000;stroke-width:0.282684"
         id="path11"
         sodipodi:type="arc"
         sodipodi:cx="28.429918"
         sodipodi:cy="137.62044"
         sodipodi:rx="3.9356074"
         sodipodi:ry="1.9643017"
         sodipodi:start="3.1098659"
         sodipodi:end="4.7016916"
         sodipodi:arc-type="slice"
         d="m 24.496291,137.68275 a 3.9356074,1.9643017 0 0 1 1.092332,-1.42151 3.9356074,1.9643017 0 0 1 2.799195,-0.60499 l 0.0421,1.96419 z" />
      <path
         style="fill:#000000;stroke-width:0.221239"
         id="path12"
         sodipodi:type="arc"
         sodipodi:cx="28.332237"
         sodipodi:cy="135.65662"
         sodipodi:rx="3.9967103"
         sodipodi:ry="1.9731632"
         sodipodi:start="0.035715235"
         sodipodi:end="1.5986721"
         sodipodi:arc-type="slice"
         d="m 32.326399,135.72707 a 3.9967103,1.9731632 0 0 1 -4.105559,1.90194 l 0.111397,-1.97239 z" />
      <path
         style="fill:#000000;stroke-width:0.264583"
         id="path13"
         sodipodi:type="arc"
         sodipodi:cx="33.594975"
         sodipodi:cy="126.76637"
         sodipodi:rx="1.6537925"
         sodipodi:ry="1.528188"
         sodipodi:start="6.0379848"
         sodipodi:end="3.3962749"
         sodipodi:open="true"
         sodipodi:arc-type="arc"
         d="m 35.1993,126.3954 a 1.6537925,1.528188 0 0 1 -0.667562,1.63036 1.6537925,1.528188 0 0 1 -1.886407,-0.008 1.6537925,1.528188 0 0 1 -0.650803,-1.63614" />
    </g>
    <g
       id="g18">
      <path
         style="fill:#a0892c;stroke-width:0.131552"
         id="path15"
         sodipodi:type="arc"
         sodipodi:cx="28.139366"
         sodipodi:cy="139.87546"
         sodipodi:rx="1.3001667"
         sodipodi:ry="1.349218"
         sodipodi:start="1.4286398"
         sodipodi:end="1.1550278"
         sodipodi:arc-type="arc"
         d="m 28.323571,141.21107 a 1.3001667,1.349218 0 0 1 -1.455656,-1.05362 1.3001667,1.349218 0 0 1 0.913439,-1.57905 1.3001667,1.349218 0 0 1 1.580524,0.83775 1.3001667,1.349218 0 0 1 -0.697383,1.69358"
         sodipodi:open="true" />
      <path
         style="fill:#000000;stroke-width:0.188041"
         id="path18-2"
         sodipodi:type="arc"
         sodipodi:cx="28.576864"
         sodipodi:cy="140.46788"
         sodipodi:rx="0.26644737"
         sodipodi:ry="0.3256579"
         sodipodi:start="1.4286398"
         sodipodi:end="1.1550278"
         sodipodi:open="true"
         sodipodi:arc-type="arc"
         d="m 28.614614,140.79025 a 0.26644737,0.3256579 0 0 1 -0.298312,-0.2543 0.26644737,0.3256579 0 0 1 0.187194,-0.38114 0.26644737,0.3256579 0 0 1 0.323901,0.20221 0.26644737,0.3256579 0 0 1 -0.142917,0.40877" />
      <path
         style="fill:#000000;stroke-width:0.188041"
         id="path18-2-1"
         sodipodi:type="arc"
         sodipodi:cx="28.576864"
         sodipodi:cy="139.49649"
         sodipodi:rx="0.26644737"
         sodipodi:ry="0.3256579"
         sodipodi:start="1.4286398"
         sodipodi:end="1.1550278"
         sodipodi:open="true"
         sodipodi:arc-type="arc"
         d="m 28.614614,139.81886 a 0.26644737,0.3256579 0 0 1 -0.298312,-0.2543 0.26644737,0.3256579 0 0 1 0.187194,-0.38114 0.26644737,0.3256579 0 0 1 0.323901,0.20221 0.26644737,0.3256579 0 0 1 -0.142917,0.40877" />
      <path
         style="fill:#000000;stroke-width:0.188041"
         id="path18-2-2"
         sodipodi:type="arc"
         sodipodi:cx="27.783113"
         sodipodi:cy="139.49649"
         sodipodi:rx="0.26644737"
         sodipodi:ry="0.3256579"
         sodipodi:start="1.4286398"
         sodipodi:end="1.1550278"
         sodipodi:open="true"
         sodipodi:arc-type="arc"
         d="m 27.820863,139.81886 a 0.26644737,0.3256579 0 0 1 -0.298312,-0.2543 0.26644737,0.3256579 0 0 1 0.187194,-0.38114 0.26644737,0.3256579 0 0 1 0.323902,0.20221 0.26644737,0.3256579 0 0 1 -0.142917,0.40877" />
      <path
         style="fill:#000000;stroke-width:0.188041"
         id="path18-2-19"
         sodipodi:type="arc"
         sodipodi:cx="27.783113"
         sodipodi:cy="140.55482"
         sodipodi:rx="0.26644737"
         sodipodi:ry="0.3256579"
         sodipodi:start="1.4286398"
         sodipodi:end="1.1550278"
         sodipodi:open="true"
         sodipodi:arc-type="arc"
         d="m 27.820863,140.8772 a 0.26644737,0.3256579 0 0 1 -0.298312,-0.25431 0.26644737,0.3256579 0 0 1 0.187194,-0.38113 0.26644737,0.3256579 0 0 1 0.323902,0.2022 0.26644737,0.3256579 0 0 1 -0.142917,0.40878" />
    </g>
    <g
       id="g18-2"
       transform="translate(0.148302,6.2008433)">
      <path
         style="fill:#a0892c;stroke-width:0.131552"
         id="path15-8"
         sodipodi:type="arc"
         sodipodi:cx="28.139366"
         sodipodi:cy="139.87546"
         sodipodi:rx="1.3001667"
         sodipodi:ry="1.349218"
         sodipodi:start="1.4286398"
         sodipodi:end="1.1550278"
         sodipodi:arc-type="arc"
         d="m 28.323571,141.21107 a 1.3001667,1.349218 0 0 1 -1.455656,-1.05362 1.3001667,1.349218 0 0 1 0.913439,-1.57905 1.3001667,1.349218 0 0 1 1.580524,0.83775 1.3001667,1.349218 0 0 1 -0.697383,1.69358"
         sodipodi:open="true" />
      <path
         style="fill:#000000;stroke-width:0.188041"
         id="path18-2-6"
         sodipodi:type="arc"
         sodipodi:cx="28.576864"
         sodipodi:cy="140.46788"
         sodipodi:rx="0.26644737"
         sodipodi:ry="0.3256579"
         sodipodi:start="1.4286398"
         sodipodi:end="1.1550278"
         sodipodi:open="true"
         sodipodi:arc-type="arc"
         d="m 28.614614,140.79025 a 0.26644737,0.3256579 0 0 1 -0.298312,-0.2543 0.26644737,0.3256579 0 0 1 0.187194,-0.38114 0.26644737,0.3256579 0 0 1 0.323901,0.20221 0.26644737,0.3256579 0 0 1 -0.142917,0.40877" />
      <path
         style="fill:#000000;stroke-width:0.188041"
         id="path18-2-1-0"
         sodipodi:type="arc"
         sodipodi:cx="28.576864"
         sodipodi:cy="139.49649"
         sodipodi:rx="0.26644737"
         sodipodi:ry="0.3256579"
         sodipodi:start="1.4286398"
         sodipodi:end="1.1550278"
         sodipodi:open="true"
         sodipodi:arc-type="arc"
         d="m 28.614614,139.81886 a 0.26644737,0.3256579 0 0 1 -0.298312,-0.2543 0.26644737,0.3256579 0 0 1 0.187194,-0.38114 0.26644737,0.3256579 0 0 1 0.323901,0.20221 0.26644737,0.3256579 0 0 1 -0.142917,0.40877" />
      <path
         style="fill:#000000;stroke-width:0.188041"
         id="path18-2-2-2"
         sodipodi:type="arc"
         sodipodi:cx="27.783113"
         sodipodi:cy="139.49649"
         sodipodi:rx="0.26644737"
         sodipodi:ry="0.3256579"
         sodipodi:start="1.4286398"
         sodipodi:end="1.1550278"
         sodipodi:open="true"
         sodipodi:arc-type="arc"
         d="m 27.820863,139.81886 a 0.26644737,0.3256579 0 0 1 -0.298312,-0.2543 0.26644737,0.3256579 0 0 1 0.187194,-0.38114 0.26644737,0.3256579 0 0 1 0.323902,0.20221 0.26644737,0.3256579 0 0 1 -0.142917,0.40877" />
      <path
         style="fill:#000000;stroke-width:0.188041"
         id="path18-2-19-4"
         sodipodi:type="arc"
         sodipodi:cx="27.783113"
         sodipodi:cy="140.55482"
         sodipodi:rx="0.26644737"
         sodipodi:ry="0.3256579"
         sodipodi:start="1.4286398"
         sodipodi:end="1.1550278"
         sodipodi:open="true"
         sodipodi:arc-type="arc"
         d="m 27.820863,140.8772 a 0.26644737,0.3256579 0 0 1 -0.298312,-0.25431 0.26644737,0.3256579 0 0 1 0.187194,-0.38113 0.26644737,0.3256579 0 0 1 0.323902,0.2022 0.26644737,0.3256579 0 0 1 -0.142917,0.40878" />
    </g>
    <g
       id="g18-9"
       transform="translate(0.148302,13.609177)">
      <path
         style="fill:#a0892c;stroke-width:0.131552"
         id="path15-0"
         sodipodi:type="arc"
         sodipodi:cx="28.139366"
         sodipodi:cy="139.87546"
         sodipodi:rx="1.3001667"
         sodipodi:ry="1.349218"
         sodipodi:start="1.4286398"
         sodipodi:end="1.1550278"
         sodipodi:arc-type="arc"
         d="m 28.323571,141.21107 a 1.3001667,1.349218 0 0 1 -1.455656,-1.05362 1.3001667,1.349218 0 0 1 0.913439,-1.57905 1.3001667,1.349218 0 0 1 1.580524,0.83775 1.3001667,1.349218 0 0 1 -0.697383,1.69358"
         sodipodi:open="true" />
      <path
         style="fill:#000000;stroke-width:0.188041"
         id="path18-2-0"
         sodipodi:type="arc"
         sodipodi:cx="28.576864"
         sodipodi:cy="140.46788"
         sodipodi:rx="0.26644737"
         sodipodi:ry="0.3256579"
         sodipodi:start="1.4286398"
         sodipodi:end="1.1550278"
         sodipodi:open="true"
         sodipodi:arc-type="arc"
         d="m 28.614614,140.79025 a 0.26644737,0.3256579 0 0 1 -0.298312,-0.2543 0.26644737,0.3256579 0 0 1 0.187194,-0.38114 0.26644737,0.3256579 0 0 1 0.323901,0.20221 0.26644737,0.3256579 0 0 1 -0.142917,0.40877" />
      <path
         style="fill:#000000;stroke-width:0.188041"
         id="path18-2-1-6"
         sodipodi:type="arc"
         sodipodi:cx="28.576864"
         sodipodi:cy="139.49649"
         sodipodi:rx="0.26644737"
         sodipodi:ry="0.3256579"
         sodipodi:start="1.4286398"
         sodipodi:end="1.1550278"
         sodipodi:open="true"
         sodipodi:arc-type="arc"
         d="m 28.614614,139.81886 a 0.26644737,0.3256579 0 0 1 -0.298312,-0.2543 0.26644737,0.3256579 0 0 1 0.187194,-0.38114 0.26644737,0.3256579 0 0 1 0.323901,0.20221 0.26644737,0.3256579 0 0 1 -0.142917,0.40877" />
      <path
         style="fill:#000000;stroke-width:0.188041"
         id="path18-2-2-1"
         sodipodi:type="arc"
         sodipodi:cx="27.783113"
         sodipodi:cy="139.49649"
         sodipodi:rx="0.26644737"
         sodipodi:ry="0.3256579"
         sodipodi:start="1.4286398"
         sodipodi:end="1.1550278"
         sodipodi:open="true"
         sodipodi:arc-type="arc"
         d="m 27.820863,139.81886 a 0.26644737,0.3256579 0 0 1 -0.298312,-0.2543 0.26644737,0.3256579 0 0 1 0.187194,-0.38114 0.26644737,0.3256579 0 0 1 0.323902,0.20221 0.26644737,0.3256579 0 0 1 -0.142917,0.40877" />
      <path
         style="fill:#000000;stroke-width:0.188041"
         id="path18-2-19-3"
         sodipodi:type="arc"
         sodipodi:cx="27.783113"
         sodipodi:cy="140.55482"
         sodipodi:rx="0.26644737"
         sodipodi:ry="0.3256579"
         sodipodi:start="1.4286398"
         sodipodi:end="1.1550278"
         sodipodi:open="true"
         sodipodi:arc-type="arc"
         d="m 27.820863,140.8772 a 0.26644737,0.3256579 0 0 1 -0.298312,-0.25431 0.26644737,0.3256579 0 0 1 0.187194,-0.38113 0.26644737,0.3256579 0 0 1 0.323902,0.2022 0.26644737,0.3256579 0 0 1 -0.142917,0.40878" />
    </g>
    <g
       id="g18-4"
       transform="translate(0.41288533,21.282093)">
      <path
         style="fill:#a0892c;stroke-width:0.131552"
         id="path15-6"
         sodipodi:type="arc"
         sodipodi:cx="28.139366"
         sodipodi:cy="139.87546"
         sodipodi:rx="1.3001667"
         sodipodi:ry="1.349218"
         sodipodi:start="1.4286398"
         sodipodi:end="1.1550278"
         sodipodi:arc-type="arc"
         d="m 28.323571,141.21107 a 1.3001667,1.349218 0 0 1 -1.455656,-1.05362 1.3001667,1.349218 0 0 1 0.913439,-1.57905 1.3001667,1.349218 0 0 1 1.580524,0.83775 1.3001667,1.349218 0 0 1 -0.697383,1.69358"
         sodipodi:open="true" />
      <path
         style="fill:#000000;stroke-width:0.188041"
         id="path18-2-06"
         sodipodi:type="arc"
         sodipodi:cx="28.576864"
         sodipodi:cy="140.46788"
         sodipodi:rx="0.26644737"
         sodipodi:ry="0.3256579"
         sodipodi:start="1.4286398"
         sodipodi:end="1.1550278"
         sodipodi:open="true"
         sodipodi:arc-type="arc"
         d="m 28.614614,140.79025 a 0.26644737,0.3256579 0 0 1 -0.298312,-0.2543 0.26644737,0.3256579 0 0 1 0.187194,-0.38114 0.26644737,0.3256579 0 0 1 0.323901,0.20221 0.26644737,0.3256579 0 0 1 -0.142917,0.40877" />
      <path
         style="fill:#000000;stroke-width:0.188041"
         id="path18-2-1-61"
         sodipodi:type="arc"
         sodipodi:cx="28.576864"
         sodipodi:cy="139.49649"
         sodipodi:rx="0.26644737"
         sodipodi:ry="0.3256579"
         sodipodi:start="1.4286398"
         sodipodi:end="1.1550278"
         sodipodi:open="true"
         sodipodi:arc-type="arc"
         d="m 28.614614,139.81886 a 0.26644737,0.3256579 0 0 1 -0.298312,-0.2543 0.26644737,0.3256579 0 0 1 0.187194,-0.38114 0.26644737,0.3256579 0 0 1 0.323901,0.20221 0.26644737,0.3256579 0 0 1 -0.142917,0.40877" />
      <path
         style="fill:#000000;stroke-width:0.188041"
         id="path18-2-2-8"
         sodipodi:type="arc"
         sodipodi:cx="27.783113"
         sodipodi:cy="139.49649"
         sodipodi:rx="0.26644737"
         sodipodi:ry="0.3256579"
         sodipodi:start="1.4286398"
         sodipodi:end="1.1550278"
         sodipodi:open="true"
         sodipodi:arc-type="arc"
         d="m 27.820863,139.81886 a 0.26644737,0.3256579 0 0 1 -0.298312,-0.2543 0.26644737,0.3256579 0 0 1 0.187194,-0.38114 0.26644737,0.3256579 0 0 1 0.323902,0.20221 0.26644737,0.3256579 0 0 1 -0.142917,0.40877" />
      <path
         style="fill:#000000;stroke-width:0.188041"
         id="path18-2-19-49"
         sodipodi:type="arc"
         sodipodi:cx="27.783113"
         sodipodi:cy="140.55482"
         sodipodi:rx="0.26644737"
         sodipodi:ry="0.3256579"
         sodipodi:start="1.4286398"
         sodipodi:end="1.1550278"
         sodipodi:open="true"
         sodipodi:arc-type="arc"
         d="m 27.820863,140.8772 a 0.26644737,0.3256579 0 0 1 -0.298312,-0.25431 0.26644737,0.3256579 0 0 1 0.187194,-0.38113 0.26644737,0.3256579 0 0 1 0.323902,0.2022 0.26644737,0.3256579 0 0 1 -0.142917,0.40878" />
    </g>
    <g
       id="g18-8"
       transform="translate(0.41288533,27.632093)">
      <path
         style="fill:#a0892c;stroke-width:0.131552"
         id="path15-2"
         sodipodi:type="arc"
         sodipodi:cx="28.139366"
         sodipodi:cy="139.87546"
         sodipodi:rx="1.3001667"
         sodipodi:ry="1.349218"
         sodipodi:start="1.4286398"
         sodipodi:end="1.1550278"
         sodipodi:arc-type="arc"
         d="m 28.323571,141.21107 a 1.3001667,1.349218 0 0 1 -1.455656,-1.05362 1.3001667,1.349218 0 0 1 0.913439,-1.57905 1.3001667,1.349218 0 0 1 1.580524,0.83775 1.3001667,1.349218 0 0 1 -0.697383,1.69358"
         sodipodi:open="true" />
      <path
         style="fill:#000000;stroke-width:0.188041"
         id="path18-2-9"
         sodipodi:type="arc"
         sodipodi:cx="28.576864"
         sodipodi:cy="140.46788"
         sodipodi:rx="0.26644737"
         sodipodi:ry="0.3256579"
         sodipodi:start="1.4286398"
         sodipodi:end="1.1550278"
         sodipodi:open="true"
         sodipodi:arc-type="arc"
         d="m 28.614614,140.79025 a 0.26644737,0.3256579 0 0 1 -0.298312,-0.2543 0.26644737,0.3256579 0 0 1 0.187194,-0.38114 0.26644737,0.3256579 0 0 1 0.323901,0.20221 0.26644737,0.3256579 0 0 1 -0.142917,0.40877" />
      <path
         style="fill:#000000;stroke-width:0.188041"
         id="path18-2-1-1"
         sodipodi:type="arc"
         sodipodi:cx="28.576864"
         sodipodi:cy="139.49649"
         sodipodi:rx="0.26644737"
         sodipodi:ry="0.3256579"
         sodipodi:start="1.4286398"
         sodipodi:end="1.1550278"
         sodipodi:open="true"
         sodipodi:arc-type="arc"
         d="m 28.614614,139.81886 a 0.26644737,0.3256579 0 0 1 -0.298312,-0.2543 0.26644737,0.3256579 0 0 1 0.187194,-0.38114 0.26644737,0.3256579 0 0 1 0.323901,0.20221 0.26644737,0.3256579 0 0 1 -0.142917,0.40877" />
      <path
         style="fill:#000000;stroke-width:0.188041"
         id="path18-2-2-3"
         sodipodi:type="arc"
         sodipodi:cx="27.783113"
         sodipodi:cy="139.49649"
         sodipodi:rx="0.26644737"
         sodipodi:ry="0.3256579"
         sodipodi:start="1.4286398"
         sodipodi:end="1.1550278"
         sodipodi:open="true"
         sodipodi:arc-type="arc"
         d="m 27.820863,139.81886 a 0.26644737,0.3256579 0 0 1 -0.298312,-0.2543 0.26644737,0.3256579 0 0 1 0.187194,-0.38114 0.26644737,0.3256579 0 0 1 0.323902,0.20221 0.26644737,0.3256579 0 0 1 -0.142917,0.40877" />
      <path
         style="fill:#000000;stroke-width:0.188041"
         id="path18-2-19-5"
         sodipodi:type="arc"
         sodipodi:cx="27.783113"
         sodipodi:cy="140.55482"
         sodipodi:rx="0.26644737"
         sodipodi:ry="0.3256579"
         sodipodi:start="1.4286398"
         sodipodi:end="1.1550278"
         sodipodi:open="true"
         sodipodi:arc-type="arc"
         d="m 27.820863,140.8772 a 0.26644737,0.3256579 0 0 1 -0.298312,-0.25431 0.26644737,0.3256579 0 0 1 0.187194,-0.38113 0.26644737,0.3256579 0 0 1 0.323902,0.2022 0.26644737,0.3256579 0 0 1 -0.142917,0.40878" />
    </g>
    <path
       style="fill:#999999;fill-opacity:1;stroke-width:0.132337"
       d="m 43.781626,163.7767 c -1.333462,-0.78659 -2.706909,-2.28155 -4.30768,-4.68876 -3.378872,-5.08113 -6.046378,-12.4991 -6.429184,-17.87869 -0.0579,-0.81374 -0.007,-1.63333 0.158152,-2.54749 0.217655,-1.2046 0.287967,-1.40036 0.661742,-1.8427 0.802658,-0.94987 1.812998,-0.85303 3.362742,0.32224 5.046648,3.82733 10.661022,17.4876 9.942672,24.19138 -0.110515,1.0314 -0.688081,2.24948 -1.243904,2.62338 -0.562155,0.37816 -1.304652,0.31607 -2.1445,-0.17977 z"
       id="path19" />
    <path
       style="fill:#ff0000;fill-opacity:1;stroke-width:0.264583"
       id="path29"
       sodipodi:type="arc"
       sodipodi:cx="28.776316"
       sodipodi:cy="106.46053"
       sodipodi:rx="1.1842104"
       sodipodi:ry="1.1842104"
       sodipodi:start="1.4286398"
       sodipodi:end="1.1550278"
       sodipodi:open="true"
       sodipodi:arc-type="arc"
       d="m 28.944093,107.6328 a 1.1842104,1.1842104 0 0 1 -1.325833,-0.92476 1.1842104,1.1842104 0 0 1 0.831973,-1.38594 1.1842104,1.1842104 0 0 1 1.439564,0.7353 1.1842104,1.1842104 0 0 1 -0.635187,1.48646" />
    <path
       style="fill:#2b0000;fill-opacity:1;stroke-width:0.57163"
       d="m 29.356829,103.73684 c 0,0.15789 -0.737018,0.47368 0,0.47368 0.737012,0 0.178774,-0.62686 0,-0.47368 -0.797185,0.68314 -0.552764,1.43111 -0.552764,2.13158"
       id="path30" />
  </g>
</svg>
